<?xml version="1.0" encoding="UTF-8"?>
<svg xmlns="http://www.w3.org/2000/svg" xmlns:xlink="http://www.w3.org/1999/xlink" width="80px" height="80px" viewBox="0 0 80 80" version="1.1">
<g id="surface1">
<path style=" stroke:none;fill-rule:nonzero;fill:rgb(1.960784%,25.882354%,30.19608%);fill-opacity:1;" d="M 30.988281 18.570312 C 31.695312 18.570312 32.394531 18.582031 33.113281 18.582031 C 34.257812 18.582031 34.257812 18.582031 35.417969 18.59375 C 36.613281 18.59375 36.613281 18.59375 37.835938 18.605469 C 38.632812 18.617188 39.4375 18.617188 40.261719 18.617188 C 42.25 18.632812 44.230469 18.644531 46.226562 18.667969 C 46.226562 20.429688 46.226562 22.1875 46.226562 24 C 48.425781 24.4375 48.425781 24.4375 50.664062 24.882812 C 50.6875 28.332031 50.707031 31.78125 50.71875 35.21875 C 50.730469 36.199219 50.742188 37.164062 50.742188 38.164062 C 50.742188 39.113281 50.757812 40.0625 50.757812 41.03125 C 50.757812 41.898438 50.769531 42.761719 50.769531 43.65625 C 50.664062 46.355469 50.273438 48.90625 49.78125 51.550781 C 45.914062 52.617188 42.1875 53.21875 38.21875 52.449219 C 36.09375 50.84375 35.21875 49.425781 33.773438 47.105469 C 33.773438 46.523438 33.773438 45.9375 33.773438 45.335938 C 32.90625 45.335938 32.019531 45.335938 31.105469 45.335938 C 30.820312 43.867188 30.519531 42.394531 30.21875 40.886719 C 29.335938 40.601562 28.460938 40.300781 27.550781 40 C 27.269531 39.113281 26.96875 38.242188 26.667969 37.332031 C 27.25 37.332031 27.835938 37.332031 28.449219 37.332031 C 28.148438 36.742188 27.851562 36.15625 27.550781 35.5625 C 26.679688 35.261719 25.792969 34.976562 24.882812 34.664062 C 24.726562 33.738281 24.726562 33.738281 24.554688 32.773438 C 23.96875 30.0625 23.136719 27.511719 22.226562 24.882812 C 24.269531 24.882812 26.332031 24.882812 28.449219 24.882812 C 28.425781 24.023438 28.414062 23.164062 28.386719 22.28125 C 28.460938 18.726562 28.460938 18.726562 30.988281 18.570312 Z M 30.988281 18.570312 "/>
<path style=" stroke:none;fill-rule:nonzero;fill:rgb(0.784314%,25.490198%,30.980393%);fill-opacity:1;" d="M 29.78125 25.664062 C 30.769531 25.664062 31.757812 25.648438 32.773438 25.648438 C 34.351562 25.664062 34.351562 25.664062 35.949219 25.664062 C 36.980469 25.664062 38.019531 25.664062 39.101562 25.648438 C 40.585938 25.664062 40.585938 25.664062 42.105469 25.664062 C 43.019531 25.664062 43.945312 25.664062 44.882812 25.664062 C 47.105469 25.78125 47.105469 25.78125 48.894531 26.667969 C 48.894531 28.425781 48.894531 30.179688 48.894531 32.007812 C 40.960938 32.007812 33.042969 32.007812 24.882812 32.007812 C 24.59375 30.230469 24.292969 28.476562 24 26.667969 C 25.542969 25.117188 27.667969 25.664062 29.78125 25.664062 Z M 29.78125 25.664062 "/>
<path style=" stroke:none;fill-rule:nonzero;fill:rgb(0.392157%,25.490198%,30.588236%);fill-opacity:1;" d="M 48.894531 34.664062 C 48.894531 37.019531 48.894531 39.363281 48.894531 41.78125 C 46.132812 41.898438 43.375 41.992188 40.613281 42.054688 C 39.4375 42.105469 39.4375 42.105469 38.242188 42.175781 C 36.070312 42.210938 34.125 42.199219 32.007812 41.78125 C 30.09375 39.605469 29.335938 38.4375 29.335938 35.5625 C 32.417969 35.40625 35.519531 35.261719 38.605469 35.117188 C 39.492188 35.0625 40.375 35.023438 41.289062 34.988281 C 42.125 34.949219 42.96875 34.90625 43.832031 34.855469 C 44.605469 34.820312 45.394531 34.792969 46.1875 34.75 C 47.992188 34.664062 47.992188 34.664062 48.894531 34.664062 Z M 48.894531 34.664062 "/>
<path style=" stroke:none;fill-rule:nonzero;fill:rgb(61.176473%,73.333335%,76.078433%);fill-opacity:1;" d="M 30.988281 18.570312 C 32.042969 18.570312 32.042969 18.570312 33.113281 18.582031 C 34.257812 18.582031 34.257812 18.582031 35.417969 18.59375 C 36.210938 18.59375 37.007812 18.605469 37.835938 18.605469 C 38.632812 18.617188 39.4375 18.617188 40.261719 18.617188 C 42.25 18.632812 44.230469 18.644531 46.226562 18.667969 C 46.226562 20.429688 46.226562 22.1875 46.226562 24 C 47.394531 24.292969 48.570312 24.582031 49.78125 24.882812 C 45.730469 25.21875 45.730469 25.21875 43.726562 23.554688 C 43.375 23.113281 43.019531 22.667969 42.667969 22.226562 C 42.957031 21.644531 43.257812 21.054688 43.554688 20.445312 C 42.667969 20.445312 41.792969 20.445312 40.886719 20.445312 C 41.1875 21.914062 41.46875 23.375 41.78125 24.882812 C 37.382812 24.882812 32.980469 24.882812 28.449219 24.882812 C 28.449219 18.726562 28.449219 18.726562 30.988281 18.570312 Z M 30.988281 18.570312 "/>
<path style=" stroke:none;fill-rule:nonzero;fill:rgb(55.29412%,60.784316%,56.078434%);fill-opacity:1;" d="M 25.78125 32.007812 C 32.8125 32.007812 39.855469 32.007812 47.105469 32.007812 C 47.40625 33.175781 47.695312 34.351562 47.992188 35.5625 C 41.835938 35.5625 35.675781 35.5625 29.335938 35.5625 C 29.917969 37.320312 30.507812 39.074219 31.105469 40.886719 C 29.386719 40.613281 29.386719 40.613281 27.550781 40 C 27.269531 39.113281 26.96875 38.242188 26.667969 37.332031 C 27.25 37.332031 27.835938 37.332031 28.449219 37.332031 C 28.148438 36.742188 27.851562 36.15625 27.550781 35.5625 C 26.679688 35.261719 25.792969 34.976562 24.882812 34.664062 C 25.179688 33.789062 25.480469 32.90625 25.78125 32.007812 Z M 25.78125 32.007812 "/>
<path style=" stroke:none;fill-rule:nonzero;fill:rgb(31.764707%,45.490196%,47.843137%);fill-opacity:1;" d="M 39.113281 19.554688 C 41.15625 19.554688 43.21875 19.554688 45.335938 19.554688 C 44.457031 20.429688 43.570312 21.3125 42.667969 22.226562 C 43.542969 22.511719 44.425781 22.8125 45.335938 23.113281 C 45.335938 23.699219 45.335938 24.28125 45.335938 24.882812 C 47.09375 24.882812 48.855469 24.882812 50.664062 24.882812 C 50.664062 31.925781 50.664062 38.96875 50.664062 46.226562 C 50.375 46.226562 50.082031 46.226562 49.78125 46.226562 C 49.78125 39.480469 49.78125 32.730469 49.78125 25.78125 C 46.261719 25.855469 42.75 25.949219 39.242188 26.054688 C 37.460938 26.105469 35.675781 26.15625 33.894531 26.199219 C 32.210938 26.25 32.210938 26.25 30.507812 26.300781 C 29.480469 26.332031 28.4375 26.355469 27.367188 26.382812 C 24.769531 26.417969 24.769531 26.417969 23.113281 28.449219 C 22.8125 27.269531 22.523438 26.09375 22.226562 24.882812 C 31.457031 24.457031 31.457031 24.457031 40.886719 24 C 40.886719 23.125 40.886719 22.238281 40.886719 21.332031 C 40.011719 22.65625 40.011719 22.65625 39.113281 24 C 39.113281 22.539062 39.113281 21.070312 39.113281 19.554688 Z M 39.113281 19.554688 "/>
<path style=" stroke:none;fill-rule:nonzero;fill:rgb(9.411765%,29.803923%,33.725491%);fill-opacity:1;" d="M 26.539062 25.6875 C 28.355469 25.71875 30.179688 25.757812 32.007812 25.78125 C 32.292969 27.238281 32.59375 28.710938 32.894531 30.21875 C 37.292969 30.519531 41.695312 30.804688 46.226562 31.105469 C 46.226562 31.40625 46.226562 31.695312 46.226562 32.007812 C 39.179688 32.007812 32.148438 32.007812 24.882812 32.007812 C 24.59375 30.230469 24.292969 28.476562 24 26.667969 C 24.882812 25.78125 24.882812 25.78125 26.539062 25.6875 Z M 26.539062 25.6875 "/>
<path style=" stroke:none;fill-rule:nonzero;fill:rgb(54.509807%,60.784316%,57.254905%);fill-opacity:1;" d="M 32.761719 40.875 C 33.8125 40.9375 33.8125 40.9375 34.894531 41 C 36.03125 41.054688 36.03125 41.054688 37.1875 41.132812 C 37.992188 41.167969 38.789062 41.226562 39.605469 41.273438 C 40.417969 41.332031 41.210938 41.367188 42.042969 41.417969 C 44.023438 41.539062 46.019531 41.65625 47.992188 41.78125 C 47.40625 42.957031 46.824219 44.125 46.226562 45.335938 C 42.40625 45.335938 38.59375 45.335938 34.664062 45.335938 C 34.375 45.925781 34.074219 46.511719 33.773438 47.105469 C 33.773438 46.523438 33.773438 45.9375 33.773438 45.335938 C 32.90625 45.335938 32.019531 45.335938 31.105469 45.335938 C 30.613281 43.605469 30.613281 43.605469 30.21875 41.78125 C 31.105469 40.886719 31.105469 40.886719 32.761719 40.875 Z M 32.761719 40.875 "/>
<path style=" stroke:none;fill-rule:nonzero;fill:rgb(6.27451%,26.274511%,30.19608%);fill-opacity:1;" d="M 29.335938 35.5625 C 34.90625 35.5625 40.480469 35.5625 46.226562 35.5625 C 46.226562 35.84375 46.226562 36.144531 46.226562 36.445312 C 45.289062 36.5 45.289062 36.5 44.335938 36.550781 C 43.125 36.625 43.125 36.625 41.886719 36.71875 C 40.675781 36.792969 40.675781 36.792969 39.457031 36.875 C 37.007812 37.148438 37.007812 37.148438 35.5625 40 C 41.71875 40.445312 41.71875 40.445312 47.992188 40.886719 C 47.992188 41.1875 47.992188 41.46875 47.992188 41.78125 C 45.394531 41.898438 42.789062 41.992188 40.167969 42.054688 C 39.425781 42.09375 38.6875 42.136719 37.917969 42.175781 C 35.855469 42.210938 34.023438 42.199219 32.007812 41.78125 C 30.132812 39.605469 29.335938 38.425781 29.335938 35.5625 Z M 29.335938 35.5625 "/>
<path style=" stroke:none;fill-rule:nonzero;fill:rgb(22.745098%,37.64706%,41.176471%);fill-opacity:1;" d="M 34.664062 45.335938 C 35.25 45.335938 35.84375 45.335938 36.445312 45.335938 C 36.445312 46.511719 36.445312 47.679688 36.445312 48.894531 C 40.542969 49.480469 44.664062 50.0625 48.894531 50.664062 C 48.894531 49.207031 48.894531 47.730469 48.894531 46.226562 C 49.179688 46.226562 49.480469 46.226562 49.78125 46.226562 C 49.78125 47.980469 49.78125 49.738281 49.78125 51.550781 C 45.925781 52.617188 42.1875 53.113281 38.21875 52.449219 C 35.949219 50.394531 35.949219 50.394531 34.664062 47.992188 C 34.664062 47.125 34.664062 46.238281 34.664062 45.335938 Z M 34.664062 45.335938 "/>
<path style=" stroke:none;fill-rule:nonzero;fill:rgb(49.803922%,60.000002%,60.000002%);fill-opacity:1;" d="M 47.105469 33.773438 C 47.40625 34.363281 47.695312 34.949219 47.992188 35.5625 C 41.835938 35.5625 35.675781 35.5625 29.335938 35.5625 C 29.917969 37.320312 30.507812 39.074219 31.105469 40.886719 C 29.386719 40.613281 29.386719 40.613281 27.550781 40 C 27.269531 39.113281 26.96875 38.242188 26.667969 37.332031 C 27.25 37.332031 27.835938 37.332031 28.449219 37.332031 C 28.449219 36.457031 28.449219 35.574219 28.449219 34.664062 C 37.679688 34.230469 37.679688 34.230469 47.105469 33.773438 Z M 47.105469 33.773438 "/>
<path style=" stroke:none;fill-rule:nonzero;fill:rgb(77.64706%,78.823531%,71.764708%);fill-opacity:1;" d="M 25.78125 32.007812 C 32.523438 32.292969 39.269531 32.59375 46.226562 32.894531 C 46.226562 33.175781 46.226562 33.476562 46.226562 33.773438 C 45.105469 33.832031 43.96875 33.882812 42.8125 33.945312 C 41.34375 34.011719 39.867188 34.085938 38.386719 34.167969 C 37.644531 34.207031 36.898438 34.230469 36.144531 34.269531 C 35.429688 34.3125 34.710938 34.351562 33.980469 34.386719 C 32.992188 34.4375 32.992188 34.4375 31.992188 34.480469 C 30.039062 34.625 30.039062 34.625 27.550781 35.5625 C 26.679688 35.261719 25.792969 34.976562 24.882812 34.664062 C 25.179688 33.789062 25.480469 32.90625 25.78125 32.007812 Z M 25.78125 32.007812 "/>
<path style=" stroke:none;fill-rule:nonzero;fill:rgb(25.882354%,39.215687%,42.352942%);fill-opacity:1;" d="M 29.335938 19.554688 C 32.269531 19.554688 35.195312 19.554688 38.21875 19.554688 C 37.929688 21.03125 37.632812 22.488281 37.332031 24 C 36.742188 23.414062 36.15625 22.824219 35.5625 22.226562 C 35.261719 22.8125 34.976562 23.398438 34.664062 24 C 33.488281 23.710938 32.320312 23.414062 31.105469 23.113281 C 31.40625 22.226562 31.695312 21.355469 32.007812 20.445312 C 31.417969 20.445312 30.820312 20.445312 30.21875 20.445312 C 29.9375 21.613281 29.636719 22.789062 29.335938 24 C 29.335938 22.539062 29.335938 21.070312 29.335938 19.554688 Z M 29.335938 19.554688 "/>
<path style=" stroke:none;fill-rule:nonzero;fill:rgb(8.235294%,26.274511%,29.803923%);fill-opacity:1;" d="M 47.105469 25.78125 C 47.992188 25.78125 48.867188 25.78125 49.78125 25.78125 C 49.78125 32.226562 49.78125 38.6875 49.78125 45.335938 C 47.789062 41.355469 47.789062 41.355469 47.945312 38.164062 C 48.1875 34.75 48.1875 34.75 47.105469 32.007812 C 47.695312 32.007812 48.28125 32.007812 48.894531 32.007812 C 48.894531 30.230469 48.894531 28.476562 48.894531 26.667969 C 48.304688 26.367188 47.71875 26.082031 47.105469 25.78125 Z M 47.105469 25.78125 "/>
<path style=" stroke:none;fill-rule:nonzero;fill:rgb(80.784315%,81.568629%,77.64706%);fill-opacity:1;" d="M 31.105469 40.886719 C 32.875 41.46875 34.636719 42.054688 36.445312 42.667969 C 36.445312 43.257812 36.445312 43.84375 36.445312 44.4375 C 35.855469 44.4375 35.273438 44.4375 34.664062 44.4375 C 34.375 45.324219 34.074219 46.210938 33.773438 47.105469 C 33.773438 46.523438 33.773438 45.9375 33.773438 45.335938 C 32.90625 45.335938 32.019531 45.335938 31.105469 45.335938 C 30.613281 43.605469 30.613281 43.605469 30.21875 41.78125 C 30.519531 41.480469 30.804688 41.1875 31.105469 40.886719 Z M 31.105469 40.886719 "/>
</g>
</svg>
